<svg aria-hidden="true" style="position: absolute; width: 0; height: 0; overflow: hidden;" version="1.1"
    xmlns="http://www.w3.org/2000/svg" xmlns:xlink="http://www.w3.org/1999/xlink">
    <defs>
        <symbol id="icon-error" viewBox="0 0 32 32">
            <path fill="#ec383b" style="fill: var(--color1, #ec383b)"
                d="M17.141 23.541c0.306-0.307 0.459-0.688 0.459-1.141s-0.154-0.833-0.461-1.139c-0.307-0.306-0.687-0.46-1.139-0.461s-0.832 0.152-1.139 0.461-0.461 0.688-0.461 1.139c0 0.451 0.154 0.832 0.461 1.141s0.687 0.462 1.139 0.459c0.452-0.003 0.832-0.155 1.141-0.459zM17.141 17.139c0.306-0.306 0.459-0.686 0.459-1.139v-6.4c0-0.453-0.154-0.833-0.461-1.139s-0.687-0.46-1.139-0.461c-0.452-0.001-0.832 0.153-1.139 0.461s-0.461 0.688-0.461 1.139v6.4c0 0.453 0.154 0.834 0.461 1.141s0.687 0.46 1.139 0.459c0.452-0.001 0.832-0.155 1.141-0.461zM16 32c-2.213 0-4.293-0.42-6.24-1.261s-3.64-1.98-5.080-3.419c-1.44-1.439-2.58-3.132-3.419-5.080s-1.26-4.028-1.261-6.24c-0.001-2.212 0.419-4.292 1.261-6.24s1.981-3.641 3.419-5.080c1.438-1.439 3.131-2.579 5.080-3.419s4.029-1.261 6.24-1.261c2.211 0 4.291 0.42 6.24 1.261s3.642 1.98 5.080 3.419c1.438 1.439 2.578 3.132 3.421 5.080s1.262 4.028 1.259 6.24c-0.003 2.212-0.424 4.292-1.261 6.24s-1.977 3.641-3.419 5.080c-1.442 1.439-3.136 2.579-5.080 3.421s-4.024 1.261-6.24 1.259zM16 28.8c3.573 0 6.6-1.24 9.080-3.72s3.72-5.507 3.72-9.080c0-3.573-1.24-6.6-3.72-9.080s-5.507-3.72-9.080-3.72c-3.573 0-6.6 1.24-9.080 3.72s-3.72 5.507-3.72 9.080c0 3.573 1.24 6.6 3.72 9.080s5.507 3.72 9.080 3.72z">
            </path>
        </symbol>
        <symbol id="icon-star" viewBox="0 0 34 32">
            <path fill="#dadde1" style="fill: var(--color2, #dadde1)"
                d="M15.195 0.61c0.429-0.813 1.593-0.813 2.022 0l4.316 8.18c0.165 0.313 0.467 0.532 0.816 0.593l9.114 1.577c0.905 0.157 1.265 1.264 0.625 1.923l-6.446 6.633c-0.247 0.254-0.362 0.608-0.312 0.959l1.317 9.155c0.131 0.91-0.811 1.594-1.635 1.188l-8.3-4.081c-0.318-0.156-0.691-0.156-1.009 0l-8.3 4.081c-0.825 0.405-1.766-0.279-1.636-1.188l1.317-9.155c0.050-0.351-0.065-0.705-0.312-0.959l-6.446-6.633c-0.64-0.659-0.281-1.766 0.625-1.923l9.114-1.577c0.349-0.060 0.651-0.279 0.816-0.593l4.316-8.18z">
            </path>
        </symbol>
        <symbol id="icon-star-yellow" viewBox="0 0 34 32">
            <path fill="#ffc531" style="fill: var(--color3, #ffc531)"
                d="M15.195 0.61c0.429-0.813 1.593-0.813 2.022 0l4.316 8.18c0.165 0.313 0.467 0.532 0.816 0.593l9.114 1.577c0.905 0.157 1.265 1.264 0.625 1.923l-6.446 6.633c-0.247 0.254-0.362 0.608-0.312 0.959l1.317 9.155c0.131 0.91-0.811 1.594-1.635 1.188l-8.3-4.081c-0.318-0.156-0.691-0.156-1.009 0l-8.3 4.081c-0.825 0.405-1.766-0.279-1.636-1.188l1.317-9.155c0.050-0.351-0.065-0.705-0.312-0.959l-6.446-6.633c-0.64-0.659-0.281-1.766 0.625-1.923l9.114-1.577c0.349-0.060 0.651-0.279 0.816-0.593l4.316-8.18z">
            </path>
        </symbol>
        <symbol id="icon-TravelTrucks" viewBox="0 0 290 32">
            <path fill="#475467" style="fill: var(--color4, #475467)"
                d="M288.838 15.333h-7.697c-0.041-0.475-0.207-0.884-0.501-1.227-0.292-0.343-0.672-0.606-1.135-0.788-0.457-0.192-0.96-0.288-1.517-0.288-0.717 0-1.333 0.131-1.847 0.394-0.516 0.263-0.768 0.636-0.757 1.121-0.011 0.343 0.137 0.662 0.439 0.955 0.311 0.293 0.913 0.52 1.803 0.682l4.727 0.849c2.383 0.434 4.156 1.167 5.318 2.197 1.171 1.020 1.762 2.389 1.773 4.106-0.011 1.657-0.506 3.096-1.485 4.318-0.971 1.212-2.3 2.151-3.985 2.818-1.677 0.657-3.593 0.985-5.743 0.985-3.556 0-6.338-0.727-8.348-2.182-2.001-1.455-3.117-3.374-3.349-5.758h8.303c0.111 0.737 0.476 1.308 1.090 1.712 0.627 0.394 1.414 0.591 2.364 0.591 0.768 0 1.399-0.131 1.894-0.394 0.506-0.263 0.764-0.636 0.772-1.121-0.009-0.444-0.233-0.798-0.666-1.060-0.425-0.263-1.092-0.475-2.001-0.636l-4.119-0.727c-2.374-0.414-4.151-1.202-5.333-2.364s-1.769-2.657-1.758-4.485c-0.011-1.616 0.414-2.985 1.271-4.106 0.868-1.131 2.106-1.99 3.712-2.576 1.617-0.596 3.531-0.894 5.743-0.894 3.364 0 6.016 0.697 7.955 2.091 1.95 1.394 2.974 3.323 3.076 5.788z">
            </path>
            <path fill="#475467" style="fill: var(--color4, #475467)"
                d="M248.352 25.515l0.060-9.939h1.092l5.636-7.818h9.393l-9.455 12.182h-2.364l-4.363 5.576zM240.836 31.030v-31.030h8.363v31.030h-8.363zM255.2 31.030l-5.333-9.212 5.455-5.939 9.455 15.152h-9.577z">
            </path>
            <path fill="#475467" style="fill: var(--color4, #475467)"
                d="M225.321 31.455c-2.526 0-4.687-0.5-6.485-1.5-1.798-1.010-3.177-2.414-4.137-4.212-0.96-1.808-1.439-3.904-1.439-6.288s0.479-4.475 1.439-6.273c0.96-1.808 2.338-3.212 4.137-4.212 1.798-1.010 3.959-1.515 6.485-1.515 2.283 0 4.258 0.414 5.924 1.242 1.677 0.818 2.974 1.98 3.893 3.485 0.919 1.495 1.385 3.253 1.393 5.273h-7.757c-0.111-1.222-0.465-2.152-1.060-2.788-0.587-0.646-1.344-0.97-2.272-0.97-0.727 0-1.365 0.212-1.909 0.636-0.546 0.414-0.971 1.045-1.274 1.894-0.303 0.838-0.454 1.894-0.454 3.167s0.151 2.333 0.454 3.182c0.303 0.838 0.727 1.47 1.274 1.894 0.544 0.414 1.182 0.621 1.909 0.621 0.614 0 1.161-0.141 1.636-0.424 0.474-0.293 0.858-0.717 1.15-1.273 0.303-0.566 0.486-1.252 0.546-2.061h7.757c-0.030 2.050-0.499 3.838-1.408 5.364-0.909 1.515-2.197 2.687-3.863 3.515-1.658 0.828-3.637 1.242-5.939 1.242z">
            </path>
            <path fill="#475467" style="fill: var(--color4, #475467)"
                d="M200.637 20.849v-13.091h8.364v23.273h-7.939v-4.424h-0.243c-0.505 1.485-1.389 2.646-2.651 3.485-1.263 0.828-2.763 1.242-4.5 1.242-1.626 0-3.051-0.374-4.273-1.121-1.212-0.747-2.157-1.778-2.833-3.091-0.667-1.313-1.005-2.818-1.015-4.515v-14.848h8.364v13.091c0.010 1.151 0.303 2.056 0.879 2.712 0.586 0.657 1.404 0.985 2.455 0.985 0.697 0 1.298-0.147 1.803-0.439 0.515-0.303 0.909-0.727 1.182-1.273 0.283-0.556 0.419-1.217 0.409-1.985z">
            </path>
            <path fill="#475467" style="fill: var(--color4, #475467)"
                d="M166.193 31.030v-23.273h8.121v4.424h0.242c0.424-1.636 1.096-2.833 2.015-3.591 0.929-0.758 2.015-1.136 3.258-1.136 0.364 0 0.722 0.030 1.076 0.091 0.364 0.051 0.712 0.126 1.045 0.227v7.136c-0.414-0.141-0.924-0.247-1.53-0.318s-1.126-0.106-1.561-0.106c-0.818 0-1.556 0.187-2.212 0.561-0.646 0.364-1.156 0.879-1.53 1.545-0.374 0.657-0.561 1.429-0.561 2.318v12.121h-8.364z">
            </path>
            <path fill="#475467" style="fill: var(--color4, #475467)"
                d="M137.495 6.788v-6.788h26.97v6.788h-9.333v24.243h-8.303v-24.243h-9.333z"></path>
            <path fill="#101828" style="fill: var(--color5, #101828)" d="M133.35 0v31.030h-8.364v-31.030h8.364z"></path>
            <path fill="#101828" style="fill: var(--color5, #101828)"
                d="M109.326 31.455c-2.485 0-4.626-0.475-6.424-1.424-1.788-0.96-3.167-2.333-4.136-4.121-0.96-1.798-1.44-3.95-1.44-6.455 0-2.404 0.485-4.505 1.455-6.303s2.338-3.197 4.106-4.197 3.853-1.5 6.257-1.5c1.758 0 3.348 0.273 4.773 0.818s2.641 1.338 3.652 2.379c1.010 1.030 1.788 2.283 2.333 3.758s0.818 3.136 0.818 4.985v1.939h-20.788v-4.606h13.091c-0.010-0.667-0.182-1.253-0.515-1.758-0.323-0.515-0.763-0.914-1.318-1.197-0.546-0.293-1.167-0.439-1.864-0.439-0.677 0-1.298 0.146-1.863 0.439-0.566 0.283-1.020 0.677-1.364 1.182-0.333 0.505-0.51 1.096-0.53 1.773v4.97c0 0.748 0.157 1.414 0.47 2s0.763 1.046 1.349 1.379c0.586 0.333 1.293 0.5 2.121 0.5 0.576 0 1.101-0.081 1.576-0.242 0.485-0.162 0.899-0.394 1.242-0.697 0.343-0.313 0.596-0.687 0.758-1.121h7.636c-0.263 1.616-0.884 3.020-1.864 4.212-0.98 1.182-2.278 2.101-3.894 2.758-1.606 0.647-3.485 0.97-5.636 0.97z">
            </path>
            <path fill="#101828" style="fill: var(--color5, #101828)"
                d="M95.651 7.758l-7.818 23.273h-9.697l-7.818-23.273h8.788l3.757 15.394h0.243l3.757-15.394h8.788z">
            </path>
            <path fill="#101828" style="fill: var(--color5, #101828)"
                d="M53.453 31.394c-1.485 0-2.798-0.243-3.939-0.727-1.131-0.495-2.020-1.242-2.667-2.243s-0.97-2.273-0.97-3.818c0-1.273 0.217-2.359 0.652-3.258 0.434-0.909 1.040-1.652 1.818-2.227s1.682-1.015 2.712-1.318c1.040-0.303 2.161-0.5 3.364-0.591 1.303-0.101 2.348-0.222 3.136-0.364 0.798-0.151 1.374-0.359 1.727-0.621 0.353-0.273 0.53-0.631 0.53-1.076v-0.061c0-0.606-0.232-1.071-0.697-1.394s-1.061-0.485-1.788-0.485c-0.798 0-1.449 0.177-1.955 0.53-0.495 0.343-0.793 0.874-0.894 1.591h-7.697c0.101-1.414 0.551-2.717 1.348-3.909 0.808-1.202 1.985-2.162 3.53-2.879 1.545-0.727 3.475-1.091 5.788-1.091 1.667 0 3.162 0.197 4.485 0.591 1.323 0.384 2.449 0.924 3.379 1.621 0.929 0.687 1.636 1.495 2.121 2.424 0.495 0.919 0.742 1.919 0.742 3v15.939h-7.818v-3.273h-0.182c-0.465 0.869-1.030 1.571-1.697 2.106-0.657 0.535-1.409 0.924-2.258 1.167-0.838 0.243-1.763 0.364-2.773 0.364zM56.18 26.121c0.636 0 1.232-0.131 1.788-0.394 0.566-0.263 1.025-0.641 1.379-1.136s0.53-1.096 0.53-1.803v-1.939c-0.222 0.091-0.46 0.177-0.712 0.258-0.243 0.081-0.505 0.157-0.788 0.227-0.273 0.071-0.566 0.136-0.879 0.197-0.303 0.061-0.621 0.116-0.954 0.167-0.646 0.101-1.177 0.268-1.591 0.5-0.404 0.222-0.707 0.5-0.909 0.833-0.192 0.323-0.288 0.687-0.288 1.091 0 0.646 0.227 1.141 0.682 1.485s1.035 0.515 1.742 0.515z">
            </path>
            <path fill="#101828" style="fill: var(--color5, #101828)"
                d="M28.698 31.030v-23.273h8.121v4.424h0.243c0.424-1.636 1.096-2.833 2.015-3.591 0.929-0.758 2.015-1.136 3.258-1.136 0.364 0 0.722 0.030 1.076 0.091 0.364 0.051 0.712 0.126 1.046 0.227v7.136c-0.414-0.141-0.924-0.247-1.53-0.318s-1.126-0.106-1.561-0.106c-0.818 0-1.556 0.187-2.212 0.561-0.647 0.364-1.157 0.879-1.53 1.545-0.374 0.657-0.56 1.429-0.56 2.318v12.121h-8.364z">
            </path>
            <path fill="#101828" style="fill: var(--color5, #101828)"
                d="M0 6.788v-6.788h26.97v6.788h-9.333v24.243h-8.303v-24.243h-9.333z"></path>
        </symbol>
        <symbol id="icon-ellipse-full" viewBox="0 0 32 32">
            <path stroke-linejoin="miter" stroke-linecap="butt" stroke-miterlimit="4" stroke-width="2.2857"
                d="M30.857 16c0 8.205-6.652 14.857-14.857 14.857s-14.857-6.652-14.857-14.857c0-8.205 6.652-14.857 14.857-14.857s14.857 6.652 14.857 14.857z">
            </path>
        </symbol>
        <symbol id="icon-ellipse-check" viewBox="0 0 32 32">
            <path stroke-linejoin="miter" stroke-linecap="butt" stroke-miterlimit="4" stroke-width="1.3333"
                d="M31.333 16c0 8.468-6.865 15.333-15.333 15.333s-15.333-6.865-15.333-15.333c0-8.468 6.865-15.333 15.333-15.333s15.333 6.865 15.333 15.333z">
            </path>
            <path stroke-linejoin="miter" stroke-linecap="butt" stroke-miterlimit="4" stroke-width="1.3333"
                d="M24.667 16c0 4.786-3.88 8.667-8.667 8.667s-8.667-3.88-8.667-8.667c0-4.786 3.88-8.667 8.667-8.667s8.667 3.88 8.667 8.667z">
            </path>
        </symbol>
        <symbol id="icon-car" viewBox="0 0 37 32">
            <path
                d="M36.892 11.998c-0.022-0.102-0.054-0.201-0.096-0.296l-3.633-8.477c-0.838-1.959-2.875-3.225-5.193-3.225h-19.017c-2.316 0-4.356 1.266-5.192 3.225l-3.637 8.477c-0.083 0.191-0.125 0.397-0.124 0.606v16.923c0 0.408 0.162 0.799 0.451 1.088s0.68 0.451 1.088 0.451h3.077c0.408 0 0.799-0.162 1.088-0.451s0.451-0.68 0.451-1.088v-1.538h24.615v1.538c0 0.408 0.162 0.799 0.451 1.088s0.68 0.451 1.088 0.451h3.077c0.408 0 0.799-0.162 1.088-0.451s0.451-0.68 0.451-1.088v-16.923c0-0.104-0.010-0.208-0.031-0.31zM7.692 21.538c-0.609 0-1.203-0.18-1.709-0.519s-0.9-0.819-1.133-1.381c-0.233-0.562-0.294-1.181-0.175-1.778s0.412-1.145 0.842-1.575c0.43-0.43 0.979-0.723 1.575-0.842s1.216-0.058 1.778 0.175c0.562 0.233 1.043 0.627 1.381 1.133s0.519 1.101 0.519 1.709c0 0.816-0.324 1.599-0.901 2.176s-1.36 0.901-2.176 0.901zM29.231 21.538c-0.608 0-1.203-0.18-1.71-0.519s-0.9-0.819-1.133-1.381c-0.233-0.562-0.294-1.181-0.175-1.778s0.412-1.145 0.842-1.575 0.979-0.723 1.575-0.842c0.597-0.119 1.216-0.058 1.778 0.175s1.043 0.627 1.381 1.133c0.338 0.506 0.519 1.101 0.519 1.709 0 0.816-0.324 1.599-0.901 2.176s-1.36 0.901-2.176 0.901zM3.871 10.769l2.714-6.332c0.348-0.813 1.299-1.361 2.367-1.361h19.017c1.067 0 2.019 0.547 2.367 1.361l2.714 6.332h-29.181z">
            </path>
        </symbol>
        <symbol id="icon-close" viewBox="0 0 32 32">
            <path stroke-linejoin="round" stroke-linecap="round" stroke-miterlimit="4" stroke-width="4"
                d="M30 30l-28-28M30 2l-28 28"></path>
        </symbol>
        <symbol id="icon-ellipse" viewBox="0 0 32 32">
            <path stroke-linejoin="miter" stroke-linecap="butt" stroke-miterlimit="4" stroke-width="1.3333"
                d="M31.333 16c0 8.468-6.865 15.333-15.333 15.333s-15.333-6.865-15.333-15.333c0-8.468 6.865-15.333 15.333-15.333s15.333 6.865 15.333 15.333z">
            </path>
        </symbol>
        <symbol id="icon-map" viewBox="0 0 32 32">
            <path
                d="M31.634 0.226c0.115 0.094 0.207 0.212 0.27 0.346s0.096 0.28 0.096 0.428v28c-0 0.231-0.080 0.455-0.227 0.634s-0.351 0.301-0.577 0.346l-10 2c-0.129 0.026-0.263 0.026-0.392 0l-9.804-1.96-9.804 1.96c-0.145 0.029-0.295 0.025-0.438-0.010s-0.277-0.103-0.392-0.197c-0.114-0.094-0.207-0.212-0.27-0.345s-0.096-0.28-0.096-0.428v-28c0-0.231 0.080-0.455 0.227-0.634s0.351-0.301 0.577-0.346l10-2c0.129-0.026 0.263-0.026 0.392 0l9.804 1.96 9.804-1.96c0.145-0.029 0.295-0.026 0.438 0.010s0.277 0.103 0.392 0.196zM20 3.82l-8-1.6v25.96l8 1.6v-25.96zM22 29.78l8-1.6v-25.96l-8 1.6v25.96zM10 28.18v-25.96l-8 1.6v25.96l8-1.6z">
            </path>
        </symbol>
        <symbol id="icon-network" viewBox="0 0 43 32">
            <path
                d="M16 4c0-1.061 0.421-2.078 1.172-2.828s1.768-1.172 2.828-1.172h2.667c1.061 0 2.078 0.421 2.828 1.172s1.172 1.768 1.172 2.828v2.667c0 1.061-0.421 2.078-1.172 2.828s-1.767 1.172-2.828 1.172v2.667h14.667c0.354 0 0.693 0.14 0.943 0.391s0.391 0.589 0.391 0.943v2.667c0 0.354-0.14 0.693-0.391 0.943s-0.589 0.391-0.943 0.391-0.693-0.14-0.943-0.391c-0.25-0.25-0.391-0.589-0.391-0.943v-1.333h-13.333v1.333c0 0.354-0.14 0.693-0.391 0.943s-0.589 0.391-0.943 0.391c-0.354 0-0.693-0.14-0.943-0.391s-0.391-0.589-0.391-0.943v-1.333h-13.333v1.333c0 0.354-0.14 0.693-0.391 0.943s-0.589 0.391-0.943 0.391c-0.354 0-0.693-0.14-0.943-0.391s-0.391-0.589-0.391-0.943v-2.667c0-0.354 0.14-0.693 0.391-0.943s0.589-0.391 0.943-0.391h14.667v-2.667c-1.061 0-2.078-0.421-2.828-1.172s-1.172-1.768-1.172-2.828v-2.667zM22.667 8c0.354 0 0.693-0.14 0.943-0.391s0.391-0.589 0.391-0.943v-2.667c0-0.354-0.14-0.693-0.391-0.943s-0.589-0.391-0.943-0.391h-2.667c-0.354 0-0.693 0.14-0.943 0.391s-0.391 0.589-0.391 0.943v2.667c0 0.354 0.14 0.693 0.391 0.943s0.589 0.391 0.943 0.391h2.667zM0 25.333c0-1.061 0.421-2.078 1.172-2.828s1.768-1.172 2.828-1.172h2.667c1.061 0 2.078 0.421 2.828 1.172s1.172 1.767 1.172 2.828v2.667c0 1.061-0.421 2.078-1.172 2.828s-1.768 1.172-2.828 1.172h-2.667c-1.061 0-2.078-0.421-2.828-1.172s-1.172-1.767-1.172-2.828v-2.667zM4 24c-0.354 0-0.693 0.14-0.943 0.391s-0.391 0.589-0.391 0.943v2.667c0 0.354 0.14 0.693 0.391 0.943s0.589 0.391 0.943 0.391h2.667c0.354 0 0.693-0.14 0.943-0.391s0.391-0.589 0.391-0.943v-2.667c0-0.354-0.14-0.693-0.391-0.943s-0.589-0.391-0.943-0.391h-2.667zM16 25.333c0-1.061 0.421-2.078 1.172-2.828s1.768-1.172 2.828-1.172h2.667c1.061 0 2.078 0.421 2.828 1.172s1.172 1.767 1.172 2.828v2.667c0 1.061-0.421 2.078-1.172 2.828s-1.767 1.172-2.828 1.172h-2.667c-1.061 0-2.078-0.421-2.828-1.172s-1.172-1.767-1.172-2.828v-2.667zM20 24c-0.354 0-0.693 0.14-0.943 0.391s-0.391 0.589-0.391 0.943v2.667c0 0.354 0.14 0.693 0.391 0.943s0.589 0.391 0.943 0.391h2.667c0.354 0 0.693-0.14 0.943-0.391s0.391-0.589 0.391-0.943v-2.667c0-0.354-0.14-0.693-0.391-0.943s-0.589-0.391-0.943-0.391h-2.667zM32 25.333c0-1.061 0.421-2.078 1.172-2.828s1.767-1.172 2.828-1.172h2.667c1.061 0 2.078 0.421 2.828 1.172s1.172 1.767 1.172 2.828v2.667c0 1.061-0.421 2.078-1.172 2.828s-1.767 1.172-2.828 1.172h-2.667c-1.061 0-2.078-0.421-2.828-1.172s-1.172-1.767-1.172-2.828v-2.667zM36 24c-0.354 0-0.693 0.14-0.943 0.391s-0.391 0.589-0.391 0.943v2.667c0 0.354 0.14 0.693 0.391 0.943s0.589 0.391 0.943 0.391h2.667c0.354 0 0.693-0.14 0.943-0.391s0.391-0.589 0.391-0.943v-2.667c0-0.354-0.14-0.693-0.391-0.943s-0.589-0.391-0.943-0.391h-2.667z">
            </path>
        </symbol>
        <symbol id="icon-station" viewBox="0 0 32 32">
            <path
                d="M6 5c0-0.265 0.105-0.52 0.293-0.707s0.442-0.293 0.707-0.293h10c0.265 0 0.52 0.105 0.707 0.293s0.293 0.442 0.293 0.707v10c0 0.265-0.105 0.52-0.293 0.707s-0.442 0.293-0.707 0.293h-10c-0.265 0-0.52-0.105-0.707-0.293s-0.293-0.442-0.293-0.707v-10z">
            </path>
            <path
                d="M2 4c0-1.061 0.421-2.078 1.172-2.828s1.768-1.172 2.828-1.172h12c1.061 0 2.078 0.421 2.828 1.172s1.172 1.768 1.172 2.828v16c1.061 0 2.078 0.421 2.828 1.172s1.172 1.768 1.172 2.828v1c0 0.265 0.105 0.52 0.293 0.707s0.442 0.293 0.707 0.293 0.52-0.105 0.707-0.293c0.188-0.188 0.293-0.442 0.293-0.707v-9h-1c-0.265 0-0.52-0.105-0.707-0.293s-0.293-0.442-0.293-0.707v-6.25c0-0.265 0.105-0.52 0.293-0.707s0.442-0.293 0.707-0.293h2.99c-0.022-0.952-0.106-1.788-0.402-2.444-0.158-0.381-0.435-0.702-0.788-0.916-0.368-0.22-0.928-0.39-1.8-0.39-0.265 0-0.52-0.105-0.707-0.293s-0.293-0.442-0.293-0.707 0.105-0.52 0.293-0.707c0.188-0.188 0.442-0.293 0.707-0.293 1.128-0.003 2.069 0.221 2.824 0.672 0.766 0.456 1.268 1.102 1.588 1.814 0.59 1.31 0.588 2.93 0.588 4.162v6.35c0 0.132-0.025 0.262-0.076 0.383s-0.124 0.232-0.217 0.325c-0.093 0.093-0.203 0.167-0.325 0.217s-0.252 0.076-0.383 0.076h-1v9c0 0.796-0.316 1.559-0.879 2.121s-1.326 0.879-2.121 0.879-1.559-0.316-2.121-0.879c-0.563-0.563-0.879-1.326-0.879-2.121v-1c0-0.53-0.211-1.039-0.586-1.414s-0.884-0.586-1.414-0.586v8h1c0.265 0 0.52 0.105 0.707 0.293s0.293 0.442 0.293 0.707-0.105 0.52-0.293 0.707c-0.188 0.188-0.442 0.293-0.707 0.293h-22c-0.265 0-0.52-0.105-0.707-0.293s-0.293-0.442-0.293-0.707 0.105-0.52 0.293-0.707c0.188-0.188 0.442-0.293 0.707-0.293h1v-26zM20 4c0-0.53-0.211-1.039-0.586-1.414s-0.884-0.586-1.414-0.586h-12c-0.53 0-1.039 0.211-1.414 0.586s-0.586 0.884-0.586 1.414v26h16v-26z">
            </path>
        </symbol>
    </defs>
</svg>